<?xml version="1.0" encoding="UTF-8"?>
<svg version="1.1" xmlns="http://www.w3.org/2000/svg" width="478" height="478">
<path d="M0 0 C5.85421821 3.67091306 10.95697521 7.32295827 15 13 C15 13.66 15 14.32 15 15 C15.66 15 16.32 15 17 15 C25.05786406 27.61230896 26.98488885 41.55624795 23.9375 56.1875 C22.16129159 62.55793977 18.80448163 67.65539086 15 73 C14.34 73.99 13.68 74.98 13 76 C12.34 76 11.68 76 11 76 C10.62875 76.9590625 10.62875 76.9590625 10.25 77.9375 C9 80 9 80 6.875 80.75 C6.25625 80.8325 5.6375 80.915 5 81 C5 81.66 5 82.32 5 83 C-8.1595398 90.19026402 -21.70988525 93.7185769 -36.6796875 89.82421875 C-44.13115882 87.17731564 -51.37422955 83.62577045 -57 78 C-57 77.34 -57 76.68 -57 76 C-57.66 76 -58.32 76 -59 76 C-59 75.34 -59 74.68 -59 74 C-59.66 74 -60.32 74 -61 74 C-70.29678452 61.18551322 -73.21976157 47.59922979 -71 32 C-69.4141839 25.79725096 -66.54244274 20.31366411 -63 15 C-62.34 15 -61.68 15 -61 15 C-60.566875 14.1028125 -60.566875 14.1028125 -60.125 13.1875 C-59 11 -59 11 -57 8 C-56.34 8 -55.68 8 -55 8 C-55 7.34 -55 6.68 -55 6 C-52.24670287 3.62910525 -49.125709 1.83680313 -46 0 C-45.1646875 -0.49628906 -44.329375 -0.99257812 -43.46875 -1.50390625 C-30.37076713 -8.10935451 -12.64417385 -7.15643037 0 0 Z " fill="#FEC701" transform="translate(281,197)"/>
<path d="M0 0 C2.5920661 1.41574694 3.31897341 2.47846012 5 5 C5.66 5.66 6.32 6.32 7 7 C7.886875 6.21625 8.77375 5.4325 9.6875 4.625 C14.24227292 0.87713324 17.97854082 -0.45415767 24.01171875 -0.23828125 C27.32757237 0.15910003 29.29555451 1.03313056 32 3 C36.21437902 9.09940478 37.1300617 15.51272742 37.11352539 22.82177734 C37.11341209 24.50284073 37.11341209 24.50284073 37.11329651 26.21786499 C37.10813522 27.41182892 37.10297394 28.60579285 37.09765625 29.8359375 C37.0962413 31.07042633 37.09482635 32.30491516 37.09336853 33.57681274 C37.08778272 37.50956675 37.07523275 41.44226328 37.0625 45.375 C37.05691912 48.04557208 37.05292058 50.71614363 37.04882812 53.38671875 C37.03781792 59.92450122 37.02056297 66.46224088 37 73 C30.4 73 23.8 73 17 73 C16.97494385 71.47600586 16.9498877 69.95201172 16.92407227 68.38183594 C16.82994762 62.73119603 16.72973906 57.08067759 16.62768555 51.43017578 C16.58435588 48.98391561 16.54267939 46.53762558 16.50268555 44.09130859 C16.44493562 40.57640582 16.38125438 37.06165309 16.31640625 33.546875 C16.29969376 32.4519574 16.28298126 31.35703979 16.26576233 30.22894287 C16.2358445 28.69780853 16.2358445 28.69780853 16.20532227 27.13574219 C16.18200584 25.79005157 16.18200584 25.79005157 16.15821838 24.41717529 C16.00997971 22.15246468 15.63090195 20.17439556 15 18 C14.01 18 13.02 18 12 18 C9.4482082 22.8931727 9.65233514 27.72937004 9.5859375 33.11328125 C9.56657135 34.08283249 9.5472052 35.05238373 9.5272522 36.05131531 C9.46762564 39.13828828 9.4211386 42.22529888 9.375 45.3125 C9.33680466 47.40952118 9.29775202 49.50652694 9.2578125 51.60351562 C9.16032939 56.73559536 9.08062602 61.86751709 9 67 C2.4 67 -4.2 67 -11 67 C-11.33 51.49 -11.66 35.98 -12 20 C-13.32 19.34 -14.64 18.68 -16 18 C-16.9465414 20.83962421 -17.14994224 22.70406529 -17.20532227 25.6550293 C-17.22526749 26.59577805 -17.24521271 27.53652679 -17.26576233 28.50578308 C-17.29083107 30.02465874 -17.29083107 30.02465874 -17.31640625 31.57421875 C-17.33718735 32.61318802 -17.35796844 33.65215729 -17.37937927 34.72261047 C-17.44480656 38.04417253 -17.50372821 41.36581416 -17.5625 44.6875 C-17.60569169 46.9381593 -17.64930619 49.18881052 -17.69335938 51.43945312 C-17.80127727 56.95955501 -17.9004018 62.4797166 -18 68 C-24.93 68 -31.86 68 -39 68 C-39 45.89 -39 23.78 -39 1 C-33.72 1 -28.44 1 -23 1 C-22.34 2.32 -21.68 3.64 -21 5 C-19.700625 3.7625 -19.700625 3.7625 -18.375 2.5 C-12.91992324 -1.41245259 -6.40140218 -1.0016864 0 0 Z " fill="#FEC32F" transform="translate(69,217)"/>
<path d="M0 0 C5.94 0 11.88 0 18 0 C18.65997072 5.27976574 19.15589273 10.14730186 19.29711914 15.41552734 C19.31677231 16.10954651 19.33642548 16.80356567 19.35667419 17.51861572 C19.4200071 19.79097028 19.47772081 22.06342684 19.53515625 24.3359375 C19.57829488 25.9404879 19.62171133 27.54503086 19.66539001 29.14956665 C19.75602618 32.50997043 19.8439971 35.8704298 19.92993164 39.23095703 C20.03881066 43.48440325 20.15319164 47.73767816 20.26950932 51.99092674 C20.3597706 55.30798473 20.44754232 58.62510515 20.53457451 61.9422493 C20.57581474 63.50714375 20.61765583 65.07202251 20.66017342 66.63688278 C20.95995755 77.76031629 21.04745821 88.87266256 21 100 C14.208991 101.38583117 7.94000404 102.22754112 1 102 C-2.55008771 91.7738624 -5.64449892 81.46330481 -8.5703125 71.04296875 C-9.98523024 66.00984783 -11.4817346 61.00279799 -13 56 C-13.12669988 69.71672425 -12.84264098 83.30708413 -12 97 C-18.6 97 -25.2 97 -32 97 C-32.13321507 89.56475683 -32.26403227 82.12947779 -32.39115143 74.69412804 C-32.45032792 71.23779149 -32.51036996 67.78147557 -32.57275391 64.32519531 C-32.92286215 44.88104973 -33.068883 25.44752551 -33 6 C-30.23434618 5.07811539 -28.61716298 4.88214778 -25.76953125 4.90234375 C-24.56586914 4.90717773 -24.56586914 4.90717773 -23.33789062 4.91210938 C-22.50451172 4.92048828 -21.67113281 4.92886719 -20.8125 4.9375 C-19.96751953 4.94201172 -19.12253906 4.94652344 -18.25195312 4.95117188 C-16.16793845 4.96294597 -14.08396023 4.9808811 -12 5 C-11.62246582 6.3597998 -11.62246582 6.3597998 -11.23730469 7.74707031 C-10.28547796 11.16963332 -9.33088164 14.59140023 -8.37451172 18.01269531 C-7.96425169 19.48244626 -7.55503926 20.95249011 -7.14697266 22.42285156 C-6.55398914 24.55875778 -5.95701083 26.69351643 -5.359375 28.828125 C-5.18315613 29.46615051 -5.00693726 30.10417603 -4.82537842 30.76153564 C-3.09071142 36.9308591 -1.03533292 42.89400125 1 49 C0.67 32.83 0.34 16.66 0 0 Z " fill="#DF0903" transform="translate(341,188)"/>
<path d="M0 0 C7.56068561 7.6366724 9.06845042 20.36765879 9.4296875 30.6328125 C9.32616736 41.32496418 7.14921949 51.67851451 1.1796875 60.6328125 C0.5196875 60.6328125 -0.1403125 60.6328125 -0.8203125 60.6328125 C-1.3153125 62.1178125 -1.3153125 62.1178125 -1.8203125 63.6328125 C-8.54626915 67.84887337 -16.08248976 68.66521742 -23.8203125 67.6328125 C-30.83344102 65.6517626 -35.66292003 62.14856318 -39.5078125 55.8828125 C-42.78075569 47.77838173 -43.15887932 39.86513773 -43.1328125 31.1953125 C-43.15698242 29.59333008 -43.15698242 29.59333008 -43.18164062 27.95898438 C-43.18686454 19.40742876 -42.04422067 11.29995786 -37.2578125 4.0078125 C-36.84402344 3.35554687 -36.43023437 2.70328125 -36.00390625 2.03125 C-35.61332031 1.56976563 -35.22273438 1.10828125 -34.8203125 0.6328125 C-34.1603125 0.6328125 -33.5003125 0.6328125 -32.8203125 0.6328125 C-32.8203125 -0.0271875 -32.8203125 -0.6871875 -32.8203125 -1.3671875 C-22.19516438 -7.05040626 -9.98461564 -7.49917484 0 0 Z M-18.8203125 9.6328125 C-24.44156058 18.06468463 -22.98798854 31.36554012 -22.0703125 41.0078125 C-21.98426758 41.91708496 -21.89822266 42.82635742 -21.80957031 43.76318359 C-21.25548226 48.9933917 -21.25548226 48.9933917 -18.8203125 53.6328125 C-16.54754137 52.72370405 -15.11408947 52.05831589 -13.70629883 50.01928711 C-12.49511988 46.75688032 -12.51496573 43.63312154 -12.51953125 40.19921875 C-12.51524612 39.48426743 -12.510961 38.7693161 -12.50654602 38.03269958 C-12.50081596 36.52400774 -12.5002927 35.01528827 -12.50463867 33.5065918 C-12.50779729 31.20638589 -12.48432992 28.90746879 -12.45898438 26.60742188 C-12.45671099 25.13802245 -12.45600807 23.66861958 -12.45703125 22.19921875 C-12.4478215 21.51573868 -12.43861176 20.83225861 -12.42912292 20.12806702 C-12.47043785 15.83395345 -13.06789883 12.98422631 -15.8203125 9.6328125 C-16.8103125 9.6328125 -17.8003125 9.6328125 -18.8203125 9.6328125 Z " fill="#FEBF30" transform="translate(151.8203125,221.3671875)"/>
<path d="M0 0 C3.14581423 -0.02888514 6.29159469 -0.04675923 9.4375 -0.0625 C10.33533203 -0.07087891 11.23316406 -0.07925781 12.15820312 -0.08789062 C13.01220703 -0.09111328 13.86621094 -0.09433594 14.74609375 -0.09765625 C15.53685303 -0.10289307 16.3276123 -0.10812988 17.14233398 -0.11352539 C19 0 19 0 20 1 C20.08384667 9.36789763 18.20783026 17.67812923 16.65795898 25.85693359 C14.98736951 34.77822583 13.65874973 43.73770612 12.39526367 52.72485352 C9.91917846 70.08082154 9.91917846 70.08082154 8 72 C5.92737924 72.08767112 3.85179706 72.10695873 1.77734375 72.09765625 C-0.11274414 72.09282227 -0.11274414 72.09282227 -2.04101562 72.08789062 C-3.38151109 72.07953403 -4.72200588 72.07106907 -6.0625 72.0625 C-7.40689942 72.0574866 -8.7513006 72.05292342 -10.09570312 72.04882812 C-13.39717941 72.03699488 -16.69856803 72.02050971 -20 72 C-21.35929227 69.28141546 -21.47328192 66.77408307 -21.83984375 63.75 C-23.14192635 53.45696215 -24.87227799 43.23499239 -26.5625 33 C-27.03875507 30.10574167 -27.51436236 27.21137876 -27.98924255 24.31689453 C-28.28215971 22.53256419 -28.57593827 20.74837495 -28.8707428 18.96435547 C-29.63566782 14.31605589 -30.35274777 9.66618224 -31 5 C-27.52125243 4.80409556 -24.04199096 4.61968408 -20.5625 4.4375 C-19.56927734 4.38142578 -18.57605469 4.32535156 -17.55273438 4.26757812 C-16.60849609 4.21923828 -15.66425781 4.17089844 -14.69140625 4.12109375 C-13.81685791 4.0739624 -12.94230957 4.02683105 -12.04125977 3.97827148 C-10 4 -10 4 -9 5 C-8.83639887 7.83575297 -8.71943222 10.66180258 -8.625 13.5 C-8.23993241 22.86044805 -6.86648068 31.83194083 -5 41 C-4.94465088 40.38479492 -4.88930176 39.76958984 -4.83227539 39.13574219 C-4.57892518 36.34019004 -4.32076306 33.54510238 -4.0625 30.75 C-3.97548828 29.78191406 -3.88847656 28.81382812 -3.79882812 27.81640625 C-3.71181641 26.88183594 -3.62480469 25.94726562 -3.53515625 24.984375 C-3.456604 24.12553711 -3.37805176 23.26669922 -3.29711914 22.38183594 C-3.02246014 20.1800502 -2.5511976 18.14502869 -2 16 C-1.70047166 12.66774724 -1.49348112 9.33494402 -1.28125 5.99609375 C-1 3 -1 3 0 0 Z " fill="#FEB220" transform="translate(190,215)"/>
<path d="M0 0 C0.45093018 0.38889404 0.90186035 0.77778809 1.36645508 1.1784668 C4.05692908 3.49279548 6.745674 5.79551082 9.51171875 8.01953125 C15.58298258 13.02260145 19.09963406 17.589147 20.40625 25.44140625 C20.82884103 32.19229802 18.80142298 37.46978918 15 43 C12.86464646 45.35882077 10.62356374 47.20959501 8 49 C7.113125 49.61875 6.22625 50.2375 5.3125 50.875 C-0.95176095 53.00248485 -8.09011219 53.21636471 -14.25 50.5625 C-19.95001071 47.21165688 -24.46405291 41.94389858 -27.5 36.125 C-28.62887927 29.06950457 -29.11822109 22.29654495 -25.48046875 15.9140625 C-23.04316828 12.76293524 -20.09610725 10.27804132 -17.0234375 7.76171875 C-14.79481766 5.97745543 -14.79481766 5.97745543 -13 3 C-10.43115304 5.04442525 -8.32130843 6.72685022 -7.49365234 10.00634766 C-7.28591423 12.28439066 -7.2047555 14.52518715 -7.1875 16.8125 C-7.16236328 17.60076172 -7.13722656 18.38902344 -7.11132812 19.20117188 C-7.05277019 21.13358373 -7.02344512 23.06684327 -7 25 C-5.35 25.33 -3.7 25.66 -2 26 C-0.71394339 23.42788678 -0.78956059 21.43093034 -0.68359375 18.5546875 C-0.64169922 17.47832031 -0.59980469 16.40195313 -0.55664062 15.29296875 C-0.51732422 14.16503906 -0.47800781 13.03710938 -0.4375 11.875 C-0.39431641 10.73933594 -0.35113281 9.60367188 -0.30664062 8.43359375 C-0.2003396 5.62252232 -0.09830595 2.81136055 0 0 Z " fill="#FE8D02" transform="translate(262,212)"/>
<path d="M0 0 C5.16557098 2.29991416 8.78636266 6.18240557 12.8125 10.0625 C13.61365234 10.78888672 14.41480469 11.51527344 15.24023438 12.26367188 C20.82030712 17.6716087 20.82030712 17.6716087 21.32836914 21.42749023 C21.09302787 23.74274591 20.6787723 25.77682108 20 28 C19.79793945 28.69593262 19.59587891 29.39186523 19.38769531 30.10888672 C17.225057 36.98416728 12.96562609 43.05156086 9 49 C8.34 49 7.68 49 7 49 C6.7525 49.639375 6.505 50.27875 6.25 50.9375 C5 53 5 53 2.875 53.75 C2.25625 53.8325 1.6375 53.915 1 54 C1 54.66 1 55.32 1 56 C-7.57475248 60.68517404 -15.13820412 64 -25 64 C-26.5703125 62.6015625 -26.5703125 62.6015625 -28.125 60.625 C-31.81221265 56.12643991 -35.87101168 52.13312438 -40.05859375 48.1015625 C-42 46 -42 46 -42 44 C-41.16082031 44.32355469 -40.32164062 44.64710938 -39.45703125 44.98046875 C-30.79467878 47.53512863 -20.10858634 47.23749306 -12 43 C-5.32056907 38.98504152 -0.4291656 34.18218986 2.11328125 26.7421875 C4.24692636 17.73764119 4.09537275 8.36138603 0 0 Z " fill="#FD8D02" transform="translate(285,224)"/>
<path d="M0 0 C0.5 2.5625 0.5 2.5625 0 6 C-1.640625 7.67578125 -1.640625 7.67578125 -3.75 9.375 C-8.76863095 13.45041308 -11.45297086 17.15370132 -12.375 23.63671875 C-12.66444808 30.12216475 -11.66729471 35.57567273 -8 41 C-3.48130761 45.93377061 1.02210757 49.47220701 7.796875 50.37109375 C15.91809322 50.55371374 21.48952326 49.11482089 27.55859375 43.578125 C32.62093209 37.99002452 34.62775352 31.95451241 34.3359375 24.546875 C33.4029699 17.47367878 30.62784414 13.27514606 25.1875 8.75 C23.97126953 7.84507812 23.97126953 7.84507812 22.73046875 6.921875 C22.15941406 6.28765625 21.58835937 5.6534375 21 5 C21.23828125 2.265625 21.23828125 2.265625 22 0 C24.96762034 -0.4342859 27.14946903 -0.50360386 29.78125 1.0546875 C35.58403213 5.76308528 39.68646709 11.89561134 42 19 C42.97624557 30.32191296 41.96604616 39.07722966 34.80078125 48.109375 C27.87822254 55.37731083 19.69292931 58.24613798 9.75 58.5 C1.11556312 58.36348716 -4.7246265 55.88379723 -11.08984375 50.1015625 C-17.53781759 43.20373002 -20.69351551 36.45000718 -20.5 27 C-20.51546875 26.24460938 -20.5309375 25.48921875 -20.546875 24.7109375 C-20.49431002 17.0627332 -17.56512095 11.24588203 -12.4375 5.625 C-11.85871094 4.97789062 -11.27992188 4.33078125 -10.68359375 3.6640625 C-7.12090457 0.14270382 -4.86065963 -0.21602932 0 0 Z " fill="#FEFBF5" transform="translate(247,213)"/>
<path d="M0 0 C3.10713182 0.56493306 5.32509958 1.08331283 7.25390625 3.703125 C10.29575528 9.58478143 11.1284654 15.21829445 11.11352539 21.82177734 C11.11344986 22.94248627 11.11337433 24.06319519 11.11329651 25.21786499 C11.10813522 26.41182892 11.10297394 27.60579285 11.09765625 28.8359375 C11.0962413 30.07042633 11.09482635 31.30491516 11.09336853 32.57681274 C11.08778272 36.50956675 11.07523275 40.44226328 11.0625 44.375 C11.05691912 47.04557208 11.05292058 49.71614363 11.04882812 52.38671875 C11.03781792 58.92450122 11.02056297 65.46224088 11 72 C4.4 72 -2.2 72 -9 72 C-9.02505615 70.47600586 -9.0501123 68.95201172 -9.07592773 67.38183594 C-9.17005238 61.73119603 -9.27026094 56.08067759 -9.37231445 50.43017578 C-9.41564412 47.98391561 -9.45732061 45.53762558 -9.49731445 43.09130859 C-9.55506438 39.57640582 -9.61874562 36.06165309 -9.68359375 32.546875 C-9.70030624 31.4519574 -9.71701874 30.35703979 -9.73423767 29.22894287 C-9.75418289 28.20818665 -9.77412811 27.18743042 -9.79467773 26.13574219 C-9.81799416 24.79005157 -9.81799416 24.79005157 -9.84178162 23.41717529 C-9.99002029 21.15246468 -10.36909805 19.17439556 -11 17 C-11.99 17 -12.98 17 -14 17 C-16.5517918 21.8931727 -16.34766486 26.72937004 -16.4140625 32.11328125 C-16.43342865 33.08283249 -16.4527948 34.05238373 -16.4727478 35.05131531 C-16.53237436 38.13828828 -16.5788614 41.22529888 -16.625 44.3125 C-16.66319534 46.40952118 -16.70224798 48.50652694 -16.7421875 50.60351562 C-16.83967061 55.73559536 -16.91937398 60.86751709 -17 66 C-23.6 66 -30.2 66 -37 66 C-37 50.49 -37 34.98 -37 19 C-36.67 19 -36.34 19 -36 19 C-36 34.18 -36 49.36 -36 65 C-30.06 65 -24.12 65 -18 65 C-18.01571045 63.65776367 -18.0314209 62.31552734 -18.04760742 60.93261719 C-18.10190531 55.95302328 -18.13634974 50.97345555 -18.16479492 45.99365234 C-18.17988182 43.83833414 -18.20035389 41.68304664 -18.22631836 39.52783203 C-18.26270544 36.42993596 -18.27972739 33.33244577 -18.29296875 30.234375 C-18.30845261 29.27070007 -18.32393646 28.30702515 -18.33988953 27.31414795 C-18.34011612 26.41351624 -18.34034271 25.51288452 -18.34057617 24.58496094 C-18.34723801 23.79442322 -18.35389984 23.0038855 -18.36076355 22.18939209 C-17.90319989 19.41254213 -16.91583612 18.03497275 -15 16 C-12.4375 15.5625 -12.4375 15.5625 -10 16 C-7.81028254 19.28457619 -7.75416098 20.2175981 -7.77294922 24.0222168 C-7.77310028 25.04304855 -7.77325134 26.06388031 -7.77340698 27.11564636 C-7.78372955 28.21572525 -7.79405212 29.31580414 -7.8046875 30.44921875 C-7.8075174 31.5769722 -7.81034729 32.70472565 -7.81326294 33.86665344 C-7.82447084 37.47370958 -7.84957677 41.08051873 -7.875 44.6875 C-7.885029 47.13085579 -7.89415499 49.57421547 -7.90234375 52.01757812 C-7.92441221 58.01181413 -7.95894644 64.00586517 -8 70 C-2.39 70 3.22 70 9 70 C8.93697101 62.41075237 8.86146699 54.82182249 8.76428509 47.23293877 C8.7196471 43.7087014 8.68037703 40.18457788 8.65356445 36.66015625 C8.62246652 32.60387289 8.56768038 28.5482046 8.51171875 24.4921875 C8.50532883 23.23260223 8.4989389 21.97301697 8.49235535 20.67526245 C8.47256119 19.49449127 8.45276703 18.31372009 8.43237305 17.09716797 C8.41571846 15.54496048 8.41571846 15.54496048 8.39872742 13.96139526 C7.93201202 10.49504528 6.64426014 8.06300151 5 5 C5 4.34 5 3.68 5 3 C2.525 2.01 2.525 2.01 0 1 C0 0.67 0 0.34 0 0 Z " fill="#FDD971" transform="translate(95,218)"/>
<path d="M0 0 C5.28 0 10.56 0 16 0 C17 1 17 1 17.0625 3.5625 C17.041875 4.366875 17.02125 5.17125 17 6 C17.66 6.33 18.32 6.66 19 7 C18.34 8.32 17.68 9.64 17 11 C16.34 11 15.68 11 15 11 C15 8.03 15 5.06 15 2 C10.71 2 6.42 2 2 2 C2 23.12 2 44.24 2 66 C7.61 66 13.22 66 19 66 C18.98428955 64.6274707 18.9685791 63.25494141 18.95239258 61.84082031 C18.89809947 56.74940864 18.86365198 51.65802256 18.83520508 46.56640625 C18.82011709 44.36258644 18.79964424 42.15879665 18.77368164 39.95507812 C18.73729942 36.78768503 18.72027368 33.62068889 18.70703125 30.453125 C18.69154739 29.46757629 18.67606354 28.48202759 18.66011047 27.46661377 C18.65988388 26.5459613 18.65965729 25.62530884 18.65942383 24.67675781 C18.65276199 23.8684552 18.64610016 23.06015259 18.63923645 22.22735596 C19.09359039 19.42217245 20.04908858 18.04171665 22 16 C24.6875 15.75 24.6875 15.75 27 16 C27 16.99 27 17.98 27 19 C25.68 18.34 24.36 17.68 23 17 C22.0534586 19.83962421 21.85005776 21.70406529 21.79467773 24.6550293 C21.77473251 25.59577805 21.75478729 26.53652679 21.73423767 27.50578308 C21.70916893 29.02465874 21.70916893 29.02465874 21.68359375 30.57421875 C21.66281265 31.61318802 21.64203156 32.65215729 21.62062073 33.72261047 C21.55519344 37.04417253 21.49627179 40.36581416 21.4375 43.6875 C21.39430831 45.9381593 21.35069381 48.18881052 21.30664062 50.43945312 C21.19872273 55.95955501 21.0995982 61.4797166 21 67 C14.07 67 7.14 67 0 67 C0 44.89 0 22.78 0 0 Z " fill="#FCD676" transform="translate(30,218)"/>
<path d="M0 0 C4.55555556 0.55555556 4.55555556 0.55555556 6 2 C6.25342626 6.11870915 6.1852282 10.24941933 6.1875 14.375 C6.19974609 15.53773438 6.21199219 16.70046875 6.22460938 17.8984375 C6.22750977 19.5690625 6.22750977 19.5690625 6.23046875 21.2734375 C6.23457764 22.29872559 6.23868652 23.32401367 6.24291992 24.38037109 C6 27 6 27 4 30 C-0.875 29.125 -0.875 29.125 -2 28 C-2.25342236 23.69352364 -2.18522638 19.37554946 -2.1875 15.0625 C-2.20586914 13.23428711 -2.20586914 13.23428711 -2.22460938 11.36914062 C-2.22654297 10.20705078 -2.22847656 9.04496094 -2.23046875 7.84765625 C-2.23457764 6.77523682 -2.23868652 5.70281738 -2.24291992 4.59790039 C-2 2 -2 2 0 0 Z " fill="#FEF6EC" transform="translate(256,209)"/>
<path d="M0 0 C3.10713182 0.56493306 5.32509958 1.08331283 7.25390625 3.703125 C10.29575528 9.58478143 11.1284654 15.21829445 11.11352539 21.82177734 C11.11344986 22.94248627 11.11337433 24.06319519 11.11329651 25.21786499 C11.10813522 26.41182892 11.10297394 27.60579285 11.09765625 28.8359375 C11.0962413 30.07042633 11.09482635 31.30491516 11.09336853 32.57681274 C11.08778272 36.50956675 11.07523275 40.44226328 11.0625 44.375 C11.05691912 47.04557208 11.05292058 49.71614363 11.04882812 52.38671875 C11.03781792 58.92450122 11.02056297 65.46224088 11 72 C4.73 71.67 -1.54 71.34 -8 71 C-8 70.67 -8 70.34 -8 70 C-2.39 70 3.22 70 9 70 C8.93697101 62.41075237 8.86146699 54.82182249 8.76428509 47.23293877 C8.7196471 43.7087014 8.68037703 40.18457788 8.65356445 36.66015625 C8.62246652 32.60387289 8.56768038 28.5482046 8.51171875 24.4921875 C8.50532883 23.23260223 8.4989389 21.97301697 8.49235535 20.67526245 C8.47256119 19.49449127 8.45276703 18.31372009 8.43237305 17.09716797 C8.42126999 16.06236298 8.41016693 15.02755798 8.39872742 13.96139526 C7.93201202 10.49504528 6.64426014 8.06300151 5 5 C5 4.34 5 3.68 5 3 C2.525 2.01 2.525 2.01 0 1 C0 0.67 0 0.34 0 0 Z " fill="#FCD165" transform="translate(95,218)"/>
<path d="M0 0 C0 6.27 0 12.54 0 19 C-0.33 19 -0.66 19 -1 19 C-1.78539109 12.81504513 -2 7.35206334 -2 1 C-7.94 1 -13.88 1 -20 1 C-19.73445312 2.37671875 -19.46890625 3.7534375 -19.1953125 5.171875 C-15.77827094 22.95536188 -15.77827094 22.95536188 -14.4375 31.37109375 C-13.97399176 34.15628165 -13.42358009 36.91793248 -12.875 39.6875 C-11.97216538 44.54023606 -11.83841045 49.07151859 -12 54 C-13.51674808 51.22514241 -14.35708668 48.82789956 -14.85375977 45.7097168 C-15.05890953 44.45272224 -15.05890953 44.45272224 -15.26820374 43.17033386 C-15.40786057 42.27236588 -15.5475174 41.37439789 -15.69140625 40.44921875 C-15.841577 39.51705032 -15.99174774 38.5848819 -16.14646912 37.62446594 C-16.62465207 34.64642637 -17.09362002 31.66701693 -17.5625 28.6875 C-17.88157115 26.69326484 -18.2012262 24.699123 -18.52148438 22.70507812 C-19.73176057 15.14364515 -20.93917253 7.58404793 -22 0 C-19.27119539 -0.19555932 -16.54228931 -0.38170447 -13.8125 -0.5625 C-13.04357422 -0.61857422 -12.27464844 -0.67464844 -11.48242188 -0.73242188 C-10.73154297 -0.78076172 -9.98066406 -0.82910156 -9.20703125 -0.87890625 C-8.5210083 -0.9260376 -7.83498535 -0.97316895 -7.12817383 -1.02172852 C-5 -1 -5 -1 0 0 Z " fill="#FDCB60" transform="translate(181,220)"/>
<path d="M0 0 C5.28 0 10.56 0 16 0 C16 1.65 16 3.3 16 5 C16.66 5.33 17.32 5.66 18 6 C17.34 7.32 16.68 8.64 16 10 C15.34 10 14.68 10 14 10 C14 7.03 14 4.06 14 1 C9.71 1 5.42 1 1 1 C1 22.12 1 43.24 1 65 C0.67 65 0.34 65 0 65 C0 43.55 0 22.1 0 0 Z " fill="#FDCE57" transform="translate(31,219)"/>
<path d="M0 0 C0.33 0 0.66 0 1 0 C1.99 5.61 2.98 11.22 4 17 C4.33 13.04 4.66 9.08 5 5 C5.66 5 6.32 5 7 5 C6.72184036 8.75113028 6.42513366 12.500569 6.125 16.25 C6.04636719 17.31347656 5.96773437 18.37695312 5.88671875 19.47265625 C5.80292969 20.49746094 5.71914062 21.52226562 5.6328125 22.578125 C5.55949707 23.52075195 5.48618164 24.46337891 5.41064453 25.43457031 C5.00053048 27.99668594 4.29117243 29.76686903 3 32 C1.04352479 30.04352479 1.2716608 26.55076626 0.9375 23.875 C0.84807129 23.16666016 0.75864258 22.45832031 0.66650391 21.72851562 C-0.17744839 14.46891834 -0.18881128 7.3007029 0 0 Z " fill="#FDC65A" transform="translate(181,239)"/>
<path d="M0 0 C3.14581423 -0.02888514 6.29159469 -0.04675923 9.4375 -0.0625 C10.33533203 -0.07087891 11.23316406 -0.07925781 12.15820312 -0.08789062 C13.01220703 -0.09111328 13.86621094 -0.09433594 14.74609375 -0.09765625 C15.93223267 -0.10551147 15.93223267 -0.10551147 17.14233398 -0.11352539 C19 0 19 0 20 1 C19.93522667 2.91964594 19.7976334 4.83703533 19.625 6.75 C19.53476563 7.79671875 19.44453125 8.8434375 19.3515625 9.921875 C19.03847028 12.66317129 18.5886275 15.30628093 18 18 C17.67 18 17.34 18 17 18 C17.33 12.72 17.66 7.44 18 2 C12.39 2 6.78 2 1 2 C0.67 6.29 0.34 10.58 0 15 C-0.33 15 -0.66 15 -1 15 C-1.02703381 13.06257659 -1.04641125 11.12504521 -1.0625 9.1875 C-1.07410156 8.10855469 -1.08570313 7.02960938 -1.09765625 5.91796875 C-1 3 -1 3 0 0 Z " fill="#FDCB69" transform="translate(190,215)"/>
<path d="M0 0 C0.66 0 1.32 0 2 0 C2.2874394 6.24378008 2.57217921 12.48767548 2.85449219 18.73168945 C2.95076754 20.85281646 3.04776161 22.97391097 3.14550781 25.0949707 C3.28642831 28.15567762 3.42470545 31.21649469 3.5625 34.27734375 C3.60624756 35.21521225 3.64999512 36.15308075 3.69506836 37.11936951 C3.94563545 42.75287526 4.0402615 48.36087302 4 54 C3.34 53.67 2.68 53.34 2 53 C0.77364163 47.14227131 0.78637404 41.21971497 0.68359375 35.25390625 C0.66281265 34.24279282 0.64203156 33.23167938 0.62062073 32.18992615 C0.55557951 28.98084887 0.49645273 25.77169432 0.4375 22.5625 C0.39427152 20.37824743 0.35065589 18.19400248 0.30664062 16.00976562 C0.1999451 10.6732572 0.09809691 5.33667304 0 0 Z " fill="#F3501F" transform="translate(341,196)"/>
<path d="M0 0 C2.76223278 2.76223278 2.57856291 5.20706617 3 9 C2.67 9 2.34 9 2 9 C1.67 16.26 1.34 23.52 1 31 C0.67 31 0.34 31 0 31 C0 20.77 0 10.54 0 0 Z " fill="#E85326" transform="translate(326,235)"/>
<path d="M0 0 C5.94 0 11.88 0 18 0 C18 0.66 18 1.32 18 2 C16.30230469 2.03867188 16.30230469 2.03867188 14.5703125 2.078125 C13.08850257 2.13439626 11.60673323 2.19174382 10.125 2.25 C9.37863281 2.26417969 8.63226563 2.27835938 7.86328125 2.29296875 C5.42861619 2.35986341 5.42861619 2.35986341 2 3 C0.39662601 4.90628782 0.39662601 4.90628782 0 7 C0 4.69 0 2.38 0 0 Z " fill="#F63A19" transform="translate(341,188)"/>
<path d="M0 0 C2 3 2 3 3.296875 5.33984375 C6.27166107 10.65767369 8.56174456 14.15139001 14 17 C13.01 17.33 12.02 17.66 11 18 C5.98807991 14.83723591 1.95993472 10.63481232 0 5 C-0.1875 2.125 -0.1875 2.125 0 0 Z " fill="#FDD569" transform="translate(111,269)"/>
<path d="M0 0 C0.33 0 0.66 0 1 0 C1 1.65 1 3.3 1 5 C1.66 5.33 2.32 5.66 3 6 C2.34 7.32 1.68 8.64 1 10 C0.34 10 -0.32 10 -1 10 C-0.67 6.7 -0.34 3.4 0 0 Z " fill="#FBD46F" transform="translate(46,219)"/>
</svg>
